<svg width="188" height="218" viewBox="0 0 188 218" fill="none" xmlns="http://www.w3.org/2000/svg">
<g opacity="0.2" filter="url(#filter0_b_5_463)">
<rect width="188" height="218" rx="8" fill="white"/>
</g>
<rect x="17.0007" y="107.87" width="155" height="95" rx="8" fill="#FBFBFB"/>
<path d="M53.4705 128.817H55.2155L57.8753 133.446H57.9847L60.6445 128.817H62.3895L58.6956 135.002V138.999H57.1644V135.002L53.4705 128.817ZM65.6931 139.153C64.9772 139.153 64.3525 138.989 63.8189 138.661C63.2852 138.333 62.8709 137.874 62.576 137.284C62.281 136.691 62.1335 136.001 62.1335 135.216C62.1335 134.424 62.281 133.731 62.576 133.138C62.8709 132.544 63.2852 132.084 63.8189 131.756C64.3525 131.428 64.9772 131.263 65.6931 131.263C66.4124 131.263 67.0371 131.428 67.5674 131.756C68.1011 132.084 68.5153 132.544 68.8103 133.138C69.1053 133.731 69.2528 134.424 69.2528 135.216C69.2528 136.001 69.1053 136.691 68.8103 137.284C68.5153 137.874 68.1011 138.333 67.5674 138.661C67.0371 138.989 66.4124 139.153 65.6931 139.153ZM65.6981 137.906C66.1654 137.906 66.5499 137.783 66.8515 137.538C67.1564 137.292 67.3818 136.966 67.5277 136.558C67.6768 136.147 67.7514 135.698 67.7514 135.211C67.7514 134.724 67.6768 134.275 67.5277 133.864C67.3818 133.453 67.1564 133.125 66.8515 132.879C66.5499 132.631 66.1654 132.506 65.6981 132.506C65.2308 132.506 64.8447 132.631 64.5397 132.879C64.2348 133.125 64.0078 133.453 63.8586 133.864C63.7095 134.275 63.6349 134.724 63.6349 135.211C63.6349 135.698 63.7095 136.147 63.8586 136.558C64.0078 136.966 64.2348 137.292 64.5397 137.538C64.8447 137.783 65.2308 137.906 65.6981 137.906ZM75.7494 135.832V131.363H77.2409V138.999H75.7793V137.677H75.6997C75.524 138.084 75.2423 138.424 74.8545 138.696C74.4701 138.964 73.9911 139.099 73.4178 139.099C72.6853 139.099 72.0837 138.857 71.6131 138.373C71.1457 137.886 70.9121 137.168 70.9121 136.22V131.363H72.3986V136.041C72.3986 136.562 72.5428 136.976 72.8311 137.284C73.1195 137.592 73.494 137.746 73.9547 137.746C74.2331 137.746 74.5098 137.677 74.7849 137.538C75.0633 137.398 75.2937 137.188 75.476 136.906C75.6616 136.621 75.7527 136.263 75.7494 135.832ZM79.2382 138.999V131.363H80.675V132.576H80.7546C80.8938 132.165 81.139 131.842 81.4904 131.607C81.8417 131.368 82.2427 131.249 82.6935 131.249C82.9023 131.249 83.0896 131.273 83.2553 131.323C83.421 131.373 83.5668 131.441 83.6928 131.527L83.2155 132.77C83.126 132.723 83.0249 132.687 82.9122 132.66C82.7996 132.634 82.6703 132.621 82.5245 132.621C82.0107 132.621 81.5815 132.783 81.2368 133.108C80.8954 133.429 80.7247 133.839 80.7247 134.336V138.999H79.2382ZM95.5314 132.034C95.3392 131.431 95.0177 130.955 94.5669 130.607C94.1195 130.256 93.5577 130.08 92.8815 130.08C92.3081 130.08 91.7911 130.228 91.3304 130.523C90.8697 130.818 90.5051 131.25 90.2366 131.82C89.9715 132.387 89.8389 133.081 89.8389 133.903C89.8389 134.729 89.9732 135.426 90.2416 135.996C90.5101 136.567 90.878 136.999 91.3453 137.294C91.8126 137.589 92.3446 137.736 92.9412 137.736C93.7565 137.736 94.4144 137.496 94.9149 137.016C95.4154 136.532 95.6739 135.879 95.6905 135.057H93.1749V133.789H97.177V134.947C97.177 135.803 96.9947 136.545 96.6301 137.175C96.2688 137.801 95.77 138.285 95.1337 138.626C94.4973 138.968 93.7665 139.138 92.9412 139.138C92.0231 139.138 91.216 138.928 90.52 138.507C89.824 138.083 89.2821 137.48 88.8943 136.697C88.5065 135.915 88.3126 134.987 88.3126 133.913C88.3126 132.83 88.5098 131.897 88.9043 131.114C89.2987 130.332 89.8389 129.731 90.525 129.31C91.2111 128.889 91.9933 128.678 92.8716 128.678C93.6041 128.678 94.2686 128.821 94.8652 129.106C95.4618 129.388 95.9556 129.78 96.3467 130.284C96.7411 130.788 96.9947 131.371 97.1074 132.034H95.5314ZM99.0078 138.999V131.363H100.445V132.576H100.524C100.663 132.165 100.909 131.842 101.26 131.607C101.611 131.368 102.012 131.249 102.463 131.249C102.672 131.249 102.859 131.273 103.025 131.323C103.191 131.373 103.336 131.441 103.462 131.527L102.985 132.77C102.896 132.723 102.794 132.687 102.682 132.66C102.569 132.634 102.44 132.621 102.294 132.621C101.78 132.621 101.351 132.783 101.006 133.108C100.665 133.429 100.494 133.839 100.494 134.336V138.999H99.0078ZM107.529 139.153C106.813 139.153 106.188 138.989 105.655 138.661C105.121 138.333 104.707 137.874 104.412 137.284C104.117 136.691 103.969 136.001 103.969 135.216C103.969 134.424 104.117 133.731 104.412 133.138C104.707 132.544 105.121 132.084 105.655 131.756C106.188 131.428 106.813 131.263 107.529 131.263C108.248 131.263 108.873 131.428 109.403 131.756C109.937 132.084 110.351 132.544 110.646 133.138C110.941 133.731 111.089 134.424 111.089 135.216C111.089 136.001 110.941 136.691 110.646 137.284C110.351 137.874 109.937 138.333 109.403 138.661C108.873 138.989 108.248 139.153 107.529 139.153ZM107.534 137.906C108.001 137.906 108.386 137.783 108.687 137.538C108.992 137.292 109.218 136.966 109.364 136.558C109.513 136.147 109.587 135.698 109.587 135.211C109.587 134.724 109.513 134.275 109.364 133.864C109.218 133.453 108.992 133.125 108.687 132.879C108.386 132.631 108.001 132.506 107.534 132.506C107.067 132.506 106.681 132.631 106.376 132.879C106.071 133.125 105.844 133.453 105.695 133.864C105.545 134.275 105.471 134.724 105.471 135.211C105.471 135.698 105.545 136.147 105.695 136.558C105.844 136.966 106.071 137.292 106.376 137.538C106.681 137.783 107.067 137.906 107.534 137.906ZM114.171 138.999L111.924 131.363H113.46L114.957 136.971H115.031L116.533 131.363H118.069L119.56 136.946H119.635L121.121 131.363H122.658L120.415 138.999H118.899L117.348 133.486H117.234L115.682 138.999H114.171ZM127.633 131.363V132.556H126.067V136.757C126.067 137.188 126.158 137.466 126.34 137.592C126.526 137.715 126.74 137.776 126.982 137.776C127.101 137.776 127.205 137.768 127.295 137.751C127.384 137.735 127.454 137.722 127.504 137.712L127.772 138.94C127.686 138.973 127.562 139.006 127.399 139.039C127.24 139.075 127.043 139.095 126.808 139.099C126.417 139.105 126.05 139.036 125.709 138.89C125.371 138.744 125.097 138.519 124.889 138.214C124.683 137.909 124.58 137.526 124.58 137.065V132.556H123.462V131.363H124.58V129.533H126.067V131.363H127.633ZM130.928 134.465V138.999H129.441V128.817H130.908V132.606H131.002C131.181 132.192 131.455 131.865 131.823 131.626C132.191 131.384 132.671 131.263 133.265 131.263C134.05 131.263 134.681 131.505 135.159 131.989C135.639 132.473 135.88 133.191 135.88 134.142V138.999H134.393V134.321C134.393 133.761 134.249 133.327 133.961 133.018C133.672 132.707 133.271 132.551 132.757 132.551C132.227 132.551 131.79 132.718 131.445 133.053C131.1 133.385 130.928 133.855 130.928 134.465Z" fill="#404040"/>
<path d="M60.0369 176.091C58.4389 176.091 57.022 175.817 55.7862 175.27C54.5504 174.723 53.5774 173.963 52.8671 172.99C52.1569 172.017 51.7876 170.895 51.7592 169.624H56.4041C56.4467 170.419 56.8089 171.062 57.4907 171.552C58.1796 172.042 59.0319 172.287 60.0475 172.287C61.1058 172.287 61.9687 172.017 62.6363 171.478C63.311 170.931 63.6448 170.224 63.6377 169.358C63.6448 168.477 63.2862 167.76 62.5618 167.206C61.8444 166.645 60.8679 166.364 59.6321 166.364H57.5973V162.976H59.6321C60.6832 162.976 61.539 162.713 62.1995 162.188C62.86 161.655 63.1868 160.959 63.1796 160.1C63.1868 159.276 62.9027 158.608 62.3274 158.097C61.7592 157.586 61.0099 157.33 60.0795 157.33C59.1349 157.33 58.3288 157.578 57.6612 158.076C56.9936 158.573 56.6456 159.237 56.6171 160.068H52.196C52.2173 158.811 52.576 157.703 53.272 156.744C53.968 155.778 54.9055 155.025 56.0845 154.485C57.2706 153.946 58.6093 153.676 60.1008 153.676C61.6065 153.676 62.924 153.949 64.0532 154.496C65.1825 155.043 66.0596 155.782 66.6846 156.712C67.3167 157.635 67.6292 158.672 67.6221 159.823C67.6292 161.044 67.2493 162.064 66.4822 162.88C65.7223 163.697 64.7315 164.216 63.5099 164.436V164.606C65.115 164.805 66.3366 165.359 67.1747 166.268C68.0198 167.177 68.4389 168.31 68.4318 169.667C68.4389 170.909 68.0802 172.014 67.3558 172.98C66.6385 173.946 65.6477 174.706 64.3835 175.26C63.1193 175.814 61.6704 176.091 60.0369 176.091ZM75.6974 172.809L75.5802 173.981C75.4879 174.919 75.3103 175.853 75.0475 176.783C74.7919 177.721 74.522 178.569 74.2379 179.329C73.9609 180.089 73.7372 180.686 73.5667 181.119H70.6264C70.7329 180.7 70.8785 180.118 71.0632 179.372C71.2478 178.626 71.4218 177.784 71.5852 176.847C71.7485 175.917 71.8515 174.968 71.8941 174.002L71.9474 172.809H75.6974ZM87.1578 176.272C85.3254 176.265 83.7487 175.814 82.4277 174.919C81.1138 174.024 80.1017 172.728 79.3915 171.03C78.6883 169.333 78.3403 167.291 78.3474 164.904C78.3545 161.332 79.1393 158.569 80.7018 156.616C82.2714 154.656 84.4234 153.676 87.1578 153.676C88.9831 153.676 90.5527 154.116 91.8666 154.997C93.1876 155.877 94.2033 157.156 94.9135 158.832C95.6237 160.501 95.9753 162.525 95.9682 164.904C95.9611 168.498 95.1763 171.293 93.6138 173.289C92.0513 175.277 89.8993 176.272 87.1578 176.272ZM87.1578 172.447C88.4078 172.447 89.4057 171.819 90.1514 170.561C90.8972 169.304 91.2665 167.419 91.2594 164.904C91.2594 162.426 90.8865 160.565 90.1408 159.322C89.395 158.079 88.4007 157.458 87.1578 157.458C85.9149 157.458 84.9206 158.079 84.1749 159.322C83.4291 160.565 83.0527 162.426 83.0456 164.904C83.0385 167.419 83.4078 169.304 84.1535 170.561C84.9064 171.819 85.9078 172.447 87.1578 172.447ZM107.812 176.272C105.98 176.265 104.403 175.814 103.082 174.919C101.768 174.024 100.756 172.728 100.046 171.03C99.3426 169.333 98.9946 167.291 99.0017 164.904C99.0088 161.332 99.7936 158.569 101.356 156.616C102.926 154.656 105.078 153.676 107.812 153.676C109.637 153.676 111.207 154.116 112.521 154.997C113.842 155.877 114.858 157.156 115.568 158.832C116.278 160.501 116.63 162.525 116.622 164.904C116.615 168.498 115.831 171.293 114.268 173.289C112.706 175.277 110.554 176.272 107.812 176.272ZM107.812 172.447C109.062 172.447 110.06 171.819 110.806 170.561C111.551 169.304 111.921 167.419 111.914 164.904C111.914 162.426 111.541 160.565 110.795 159.322C110.049 158.079 109.055 157.458 107.812 157.458C106.569 157.458 105.575 158.079 104.829 159.322C104.083 160.565 103.707 162.426 103.7 164.904C103.693 167.419 104.062 169.304 104.808 170.561C105.561 171.819 106.562 172.447 107.812 172.447ZM128.466 176.272C126.634 176.265 125.057 175.814 123.736 174.919C122.422 174.024 121.41 172.728 120.7 171.03C119.997 169.333 119.649 167.291 119.656 164.904C119.663 161.332 120.448 158.569 122.01 156.616C123.58 154.656 125.732 153.676 128.466 153.676C130.292 153.676 131.861 154.116 133.175 154.997C134.496 155.877 135.512 157.156 136.222 158.832C136.932 160.501 137.284 162.525 137.277 164.904C137.27 168.498 136.485 171.293 134.922 173.289C133.36 175.277 131.208 176.272 128.466 176.272ZM128.466 172.447C129.716 172.447 130.714 171.819 131.46 170.561C132.206 169.304 132.575 167.419 132.568 164.904C132.568 162.426 132.195 160.565 131.449 159.322C130.704 158.079 129.709 157.458 128.466 157.458C127.224 157.458 126.229 158.079 125.483 159.322C124.738 160.565 124.361 162.426 124.354 164.904C124.347 167.419 124.716 169.304 125.462 170.561C126.215 171.819 127.216 172.447 128.466 172.447Z" fill="#FF4D4A"/>
<path opacity="0.96" d="M43.3592 51H40.5467L45.6674 36.4545H48.9203L54.0481 51H51.2356L50.0282 47.4134H44.5595L43.3592 51ZM45.2697 45.2969H49.318L47.3507 39.4375H47.237L45.2697 45.2969ZM55.8503 51V40.0909H58.3077V41.9446H58.4355C58.6628 41.3243 59.0392 40.8366 59.5648 40.4815C60.0904 40.1264 60.7177 39.9489 61.4469 39.9489C62.1808 39.9489 62.8034 40.1264 63.3148 40.4815C63.8262 40.8366 64.186 41.3243 64.3944 41.9446H64.508C64.7495 41.3385 65.1567 40.8556 65.7296 40.4957C66.3072 40.1312 66.9914 39.9489 67.7821 39.9489C68.7859 39.9489 69.6051 40.2661 70.2395 40.9006C70.874 41.535 71.1912 42.4607 71.1912 43.6776V51H68.6131V44.0753C68.6131 43.3982 68.4332 42.9034 68.0733 42.5909C67.7135 42.2737 67.2731 42.1151 66.7523 42.1151C66.132 42.1151 65.6467 42.3092 65.2963 42.6974C64.9507 43.081 64.7779 43.5805 64.7779 44.196V51H62.2566V43.9688C62.2566 43.4053 62.0861 42.9555 61.7452 42.6193C61.409 42.2831 60.9687 42.1151 60.4242 42.1151C59.8702 42.1151 59.3967 42.3234 59.0037 42.7401C58.6155 43.152 58.4213 43.6941 58.4213 44.3665V51H55.8503ZM76.9387 51.2202C75.8971 51.2202 75.0282 50.9408 74.3322 50.3821C73.6362 49.8234 73.2882 49.009 73.2882 47.9389C73.2882 47.1198 73.4847 46.4853 73.8777 46.0355C74.2754 45.581 74.7891 45.2519 75.4189 45.0483C76.0533 44.84 76.7233 44.6979 77.4288 44.6222C78.39 44.518 79.0789 44.4209 79.4956 44.331C79.917 44.241 80.1277 44.0114 80.1277 43.642V43.5994C80.1277 43.0644 79.969 42.6501 79.6518 42.3565C79.3346 42.063 78.8777 41.9162 78.2811 41.9162C77.6513 41.9162 77.1518 42.0535 76.7825 42.3281C76.4179 42.6027 76.1717 42.9271 76.0439 43.3011L73.6433 42.9602C73.9274 41.9659 74.4814 41.2154 75.3052 40.7088C76.1338 40.2022 77.121 39.9489 78.2669 39.9489C78.7877 39.9489 79.3085 40.0104 79.8294 40.1335C80.3502 40.2566 80.8261 40.4602 81.2569 40.7443C81.6925 41.0284 82.0405 41.4119 82.301 41.8949C82.5661 42.3778 82.6987 42.9792 82.6987 43.6989V51H80.2271V49.5014H80.1419C79.9099 49.9607 79.5311 50.3632 79.0055 50.7088C78.4847 51.0497 77.7958 51.2202 76.9387 51.2202ZM77.6064 49.331C78.3829 49.331 78.9984 49.1084 79.4529 48.6634C79.9075 48.2183 80.1348 47.6927 80.1348 47.0866V45.8011C80.0259 45.8911 79.8246 45.9716 79.5311 46.0426C79.2422 46.1089 78.9345 46.1657 78.6078 46.2131C78.2811 46.2604 78.0041 46.3007 77.7768 46.3338C77.2039 46.4143 76.7257 46.5729 76.3422 46.8097C75.9586 47.0417 75.7669 47.4039 75.7669 47.8963C75.7669 48.3698 75.9397 48.7273 76.2853 48.9688C76.631 49.2102 77.0713 49.331 77.6064 49.331ZM87.8549 44.608V51H85.2839V40.0909H87.7413V41.9446H87.8691C88.1201 41.3385 88.5202 40.8556 89.0694 40.4957C89.6234 40.1312 90.3076 39.9489 91.122 39.9489C92.2489 39.9489 93.1532 40.3063 93.835 41.0213C94.5216 41.7363 94.8625 42.7472 94.8578 44.054V51H92.2868V44.4517C92.2868 43.7225 92.0974 43.152 91.7186 42.7401C91.3445 42.3281 90.8261 42.1222 90.1632 42.1222C89.4861 42.1222 88.9321 42.34 88.5012 42.7756C88.0704 43.2064 87.8549 43.8172 87.8549 44.608ZM101.52 51.1918C100.663 51.1918 99.8957 50.9716 99.2186 50.5312C98.5415 50.0909 98.0065 49.4517 97.6135 48.6136C97.2205 47.7756 97.024 46.7576 97.024 45.5597C97.024 44.3475 97.2228 43.3248 97.6206 42.4915C98.023 41.6581 98.5652 41.026 99.247 40.5952C99.9288 40.1643 100.689 39.9489 101.527 39.9489C102.171 39.9489 102.696 40.0578 103.104 40.2756C103.515 40.4886 103.842 40.7467 104.084 41.0497C104.33 41.348 104.517 41.6297 104.645 41.8949H104.751V36.4545H107.329V51H104.801V49.2812H104.645C104.512 49.5464 104.32 49.8281 104.069 50.1264C103.818 50.42 103.487 50.6709 103.075 50.8793C102.663 51.0876 102.145 51.1918 101.52 51.1918ZM102.237 49.0824C103.056 49.0824 103.688 48.758 104.133 48.1094C104.578 47.456 104.801 46.6013 104.801 45.5455C104.801 44.4848 104.581 43.6397 104.14 43.0099C103.7 42.3755 103.066 42.0582 102.237 42.0582C101.38 42.0582 100.734 42.3849 100.298 43.0384C99.8625 43.6918 99.6447 44.5275 99.6447 45.5455C99.6447 46.5682 99.8649 47.4134 100.305 48.081C100.746 48.7486 101.39 49.0824 102.237 49.0824ZM113.208 51.2202C112.167 51.2202 111.298 50.9408 110.602 50.3821C109.906 49.8234 109.558 49.009 109.558 47.9389C109.558 47.1198 109.754 46.4853 110.147 46.0355C110.545 45.581 111.059 45.2519 111.688 45.0483C112.323 44.84 112.993 44.6979 113.698 44.6222C114.66 44.518 115.348 44.4209 115.765 44.331C116.186 44.241 116.397 44.0114 116.397 43.642V43.5994C116.397 43.0644 116.239 42.6501 115.921 42.3565C115.604 42.063 115.147 41.9162 114.551 41.9162C113.921 41.9162 113.421 42.0535 113.052 42.3281C112.687 42.6027 112.441 42.9271 112.313 43.3011L109.913 42.9602C110.197 41.9659 110.751 41.2154 111.575 40.7088C112.403 40.2022 113.391 39.9489 114.536 39.9489C115.057 39.9489 115.578 40.0104 116.099 40.1335C116.62 40.2566 117.096 40.4602 117.526 40.7443C117.962 41.0284 118.31 41.4119 118.57 41.8949C118.836 42.3778 118.968 42.9792 118.968 43.6989V51H116.497V49.5014H116.411C116.179 49.9607 115.801 50.3632 115.275 50.7088C114.754 51.0497 114.065 51.2202 113.208 51.2202ZM113.876 49.331C114.652 49.331 115.268 49.1084 115.722 48.6634C116.177 48.2183 116.404 47.6927 116.404 47.0866V45.8011C116.295 45.8911 116.094 45.9716 115.801 46.0426C115.512 46.1089 115.204 46.1657 114.877 46.2131C114.551 46.2604 114.274 46.3007 114.046 46.3338C113.473 46.4143 112.995 46.5729 112.612 46.8097C112.228 47.0417 112.036 47.4039 112.036 47.8963C112.036 48.3698 112.209 48.7273 112.555 48.9688C112.901 49.2102 113.341 49.331 113.876 49.331ZM126.628 36.4545H129.852L134.171 46.9943H134.341L138.659 36.4545H141.884V51H139.355V41.0071H139.22L135.2 50.9574H133.311L129.291 40.9858H129.156V51H126.628V36.4545ZM146.497 51.1562C146.066 51.1562 145.696 51.0047 145.389 50.7017C145.081 50.3939 144.929 50.0246 144.934 49.5938C144.929 49.1676 145.081 48.803 145.389 48.5C145.696 48.197 146.066 48.0455 146.497 48.0455C146.918 48.0455 147.283 48.197 147.59 48.5C147.898 48.803 148.054 49.1676 148.059 49.5938C148.054 50.0246 147.898 50.3939 147.59 50.7017C147.283 51.0047 146.918 51.1562 146.497 51.1562ZM78.3343 76H73.4054V61.4545H78.4338C79.8779 61.4545 81.1184 61.7457 82.1554 62.3281C83.197 62.9058 83.9972 63.7367 84.5559 64.821C85.1146 65.9053 85.394 67.2027 85.394 68.7131C85.394 70.2282 85.1123 71.5303 84.5488 72.6193C83.9901 73.7083 83.1828 74.544 82.127 75.1264C81.0758 75.7088 79.8116 76 78.3343 76ZM76.0403 73.7202H78.2065C81.2557 73.7202 82.7804 72.0511 82.7804 68.7131C82.7804 65.3939 81.2818 63.7344 78.2846 63.7344H76.0403V73.7202ZM90.9231 76.2202C89.8815 76.2202 89.0126 75.9408 88.3166 75.3821C87.6206 74.8234 87.2725 74.009 87.2725 72.9389C87.2725 72.1198 87.469 71.4853 87.862 71.0355C88.2598 70.581 88.7735 70.2519 89.4032 70.0483C90.0377 69.84 90.7077 69.6979 91.4132 69.6222C92.3743 69.518 93.0633 69.4209 93.4799 69.331C93.9013 69.241 94.112 69.0114 94.112 68.642V68.5994C94.112 68.0644 93.9534 67.6501 93.6362 67.3565C93.319 67.063 92.862 66.9162 92.2654 66.9162C91.6357 66.9162 91.1362 67.0535 90.7669 67.3281C90.4023 67.6027 90.1561 67.9271 90.0282 68.3011L87.6277 67.9602C87.9118 66.9659 88.4657 66.2154 89.2896 65.7088C90.1182 65.2022 91.1054 64.9489 92.2512 64.9489C92.7721 64.9489 93.2929 65.0104 93.8137 65.1335C94.3346 65.2566 94.8104 65.4602 95.2413 65.7443C95.6769 66.0284 96.0249 66.4119 96.2853 66.8949C96.5505 67.3778 96.6831 67.9792 96.6831 68.6989V76H94.2115V74.5014H94.1262C93.8942 74.9607 93.5154 75.3632 92.9899 75.7088C92.469 76.0497 91.7801 76.2202 90.9231 76.2202ZM91.5907 74.331C92.3672 74.331 92.9828 74.1084 93.4373 73.6634C93.8919 73.2183 94.1191 72.6927 94.1191 72.0866V70.8011C94.0102 70.8911 93.809 70.9716 93.5154 71.0426C93.2266 71.1089 92.9189 71.1657 92.5922 71.2131C92.2654 71.2604 91.9885 71.3007 91.7612 71.3338C91.1883 71.4143 90.71 71.5729 90.3265 71.8097C89.943 72.0417 89.7512 72.4039 89.7512 72.8963C89.7512 73.3698 89.9241 73.7273 90.2697 73.9688C90.6154 74.2102 91.0557 74.331 91.5907 74.331ZM104.716 65.0909V67.0795H102.564V72.7188C102.564 73.2348 102.677 73.5758 102.905 73.7415C103.132 73.9025 103.407 73.983 103.729 73.983C103.89 73.983 104.036 73.9711 104.169 73.9474C104.306 73.9238 104.41 73.9025 104.481 73.8835L104.915 75.8935C104.777 75.9408 104.581 75.9929 104.325 76.0497C104.074 76.1065 103.766 76.1397 103.402 76.1491C102.436 76.1776 101.624 75.9408 100.966 75.4389C100.312 74.937 99.988 74.1723 99.9927 73.1449V67.0795H98.4444V65.0909H99.9927V62.4773H102.564V65.0909H104.716ZM110.005 76.2202C108.963 76.2202 108.095 75.9408 107.399 75.3821C106.703 74.8234 106.355 74.009 106.355 72.9389C106.355 72.1198 106.551 71.4853 106.944 71.0355C107.342 70.581 107.856 70.2519 108.485 70.0483C109.12 69.84 109.79 69.6979 110.495 69.6222C111.456 69.518 112.145 69.4209 112.562 69.331C112.983 69.241 113.194 69.0114 113.194 68.642V68.5994C113.194 68.0644 113.035 67.6501 112.718 67.3565C112.401 67.063 111.944 66.9162 111.347 66.9162C110.718 66.9162 110.218 67.0535 109.849 67.3281C109.484 67.6027 109.238 67.9271 109.11 68.3011L106.71 67.9602C106.994 66.9659 107.548 66.2154 108.372 65.7088C109.2 65.2022 110.187 64.9489 111.333 64.9489C111.854 64.9489 112.375 65.0104 112.896 65.1335C113.417 65.2566 113.892 65.4602 114.323 65.7443C114.759 66.0284 115.107 66.4119 115.367 66.8949C115.633 67.3778 115.765 67.9792 115.765 68.6989V76H113.294V74.5014H113.208C112.976 74.9607 112.597 75.3632 112.072 75.7088C111.551 76.0497 110.862 76.2202 110.005 76.2202ZM110.673 74.331C111.449 74.331 112.065 74.1084 112.519 73.6634C112.974 73.2183 113.201 72.6927 113.201 72.0866V70.8011C113.092 70.8911 112.891 70.9716 112.597 71.0426C112.309 71.1089 112.001 71.1657 111.674 71.2131C111.347 71.2604 111.07 71.3007 110.843 71.3338C110.27 71.4143 109.792 71.5729 109.409 71.8097C109.025 72.0417 108.833 72.4039 108.833 72.8963C108.833 73.3698 109.006 73.7273 109.352 73.9688C109.697 74.2102 110.138 74.331 110.673 74.331Z" fill="white"/>
<defs>
<filter id="filter0_b_5_463" x="-80" y="-80" width="348" height="378" filterUnits="userSpaceOnUse" color-interpolation-filters="sRGB">
<feFlood flood-opacity="0" result="BackgroundImageFix"/>
<feGaussianBlur in="BackgroundImage" stdDeviation="40"/>
<feComposite in2="SourceAlpha" operator="in" result="effect1_backgroundBlur_5_463"/>
<feBlend mode="normal" in="SourceGraphic" in2="effect1_backgroundBlur_5_463" result="shape"/>
</filter>
</defs>
</svg>
