<?xml version="1.0" standalone="no"?>
<!DOCTYPE svg PUBLIC "-//W3C//DTD SVG 20010904//EN"
 "http://www.w3.org/TR/2001/REC-SVG-20010904/DTD/svg10.dtd">
<svg version="1.0" xmlns="http://www.w3.org/2000/svg"
 width="1276.000000pt" height="740.000000pt" viewBox="0 0 1276.000000 740.000000"
 preserveAspectRatio="xMidYMid meet">
<metadata>
Created by potrace 1.16, written by Peter Selinger 2001-2019
</metadata>
<g transform="translate(0.000000,740.000000) scale(0.100000,-0.100000)"
fill="#000000" stroke="none">
<path d="M7809 6663 c-133 -116 -247 -283 -314 -458 -15 -38 -30 -79 -35 -90
-4 -11 -13 -38 -18 -60 -80 -299 -77 -247 -77 -1240 l0 -880 383 -3 382 -2 0
833 c0 904 -5 1035 -51 1312 -47 287 -157 635 -200 635 -9 0 -40 -21 -70 -47z
m-170 -1059 c21 -26 21 -34 21 -695 0 -475 -3 -675 -11 -693 -26 -56 -108 -56
-129 0 -7 17 -9 268 -8 699 3 646 4 674 22 694 28 31 79 28 105 -5z"/>
<path d="M4875 6261 c-99 -24 -155 -90 -155 -180 0 -49 19 -93 100 -236 33
-57 40 -71 320 -575 139 -250 263 -474 276 -497 58 -104 259 -465 309 -558 22
-38 62 -111 90 -161 28 -49 54 -98 58 -107 6 -16 49 -17 557 -17 381 0 550 3
550 11 0 9 -82 169 -100 194 -4 6 -24 42 -45 80 -21 39 -57 104 -80 145 -70
125 -97 172 -131 235 -18 33 -37 61 -43 63 -6 2 -48 -17 -94 -42 -86 -47 -120
-55 -147 -33 -27 21 -131 216 -132 246 -1 19 17 55 50 104 57 86 82 159 82
241 0 115 -70 226 -172 274 -45 21 -88 29 -88 16 0 -3 7 -27 16 -55 25 -76 16
-174 -21 -235 -59 -95 -169 -143 -280 -122 -97 18 -162 55 -251 143 -117 116
-191 238 -272 445 -38 99 -94 288 -121 410 -27 122 -36 142 -74 175 -49 42
-123 55 -202 36z"/>
<path d="M9805 5230 c-97 -13 -197 -60 -169 -78 6 -4 46 -34 89 -67 43 -33
100 -77 127 -98 59 -46 74 -78 55 -116 -12 -24 -73 -106 -332 -446 -216 -284
-273 -343 -382 -397 -125 -61 -237 -45 -323 49 -81 87 -112 196 -91 319 7 36
10 69 7 71 -12 12 -132 -119 -197 -214 -70 -103 -159 -275 -159 -307 0 -13 12
-16 73 -16 252 0 493 -123 646 -329 28 -38 51 -73 51 -79 0 -29 23 -17 60 30
23 29 47 60 53 68 7 9 60 78 118 155 58 77 170 226 249 330 80 105 185 244
235 310 50 66 161 213 247 326 l156 206 7 115 c8 127 4 153 -27 169 -18 10
-25 6 -57 -28 -47 -52 -70 -59 -113 -35 -91 52 -222 77 -323 62z"/>
<path d="M3599 3765 c-213 -59 -400 -246 -460 -460 -20 -71 -18 -284 3 -351
78 -248 264 -413 523 -463 45 -9 674 -11 2510 -9 2317 3 2453 4 2505 21 217
70 381 228 448 432 96 289 -40 629 -306 768 -37 19 -96 45 -131 56 l-64 21
-2491 -1 c-1969 -1 -2501 -4 -2537 -14z m4926 -431 c101 -43 155 -183 111
-287 -16 -39 -66 -91 -110 -114 -41 -22 -150 -22 -191 -1 -69 36 -113 100
-122 176 -7 65 12 126 55 174 65 72 163 92 257 52z m-4669 1 c96 -50 147 -150
124 -246 -31 -129 -156 -204 -281 -169 -48 13 -118 75 -140 124 -47 103 -1
233 100 286 45 24 155 27 197 5z"/>
<path d="M8375 3186 c-30 -30 -32 -64 -5 -99 43 -54 123 -38 136 29 14 78 -75
126 -131 70z"/>
<path d="M3709 3192 c-29 -24 -29 -87 0 -116 45 -45 131 -6 131 60 0 62 -81
96 -131 56z"/>
<path d="M3385 2038 c-385 -388 -529 -556 -705 -818 -135 -201 -290 -509 -290
-576 0 -21 6 -23 77 -30 85 -8 265 1 346 17 150 29 351 102 470 171 26 15 50
28 53 28 10 0 241 154 289 193 76 61 1305 1290 1305 1304 0 10 -30 13 -117 13
l-117 0 -521 -520 c-460 -459 -525 -520 -551 -520 -39 0 -64 27 -64 71 0 31
33 67 456 490 270 270 454 461 450 468 -5 8 -120 11 -394 11 l-387 0 -300
-302z"/>
<path d="M5537 2333 c-4 -3 -7 -360 -7 -792 l0 -787 74 -73 c90 -90 95 -89
189 8 l67 69 0 785 c0 706 -2 785 -16 791 -21 8 -299 8 -307 -1z m203 -1063
c19 -19 20 -33 20 -282 0 -255 -1 -262 -22 -285 -30 -32 -71 -30 -98 4 -20 26
-21 35 -18 286 3 258 3 259 27 278 30 25 66 24 91 -1z"/>
<path d="M6314 2329 c-6 -10 1562 -1589 1579 -1589 31 0 -35 182 -122 335 -36
62 -127 191 -200 282 -36 45 -269 284 -516 532 l-450 451 -142 0 c-93 0 -144
-4 -149 -11z"/>
</g>
</svg>
